<?xml version="1.0" encoding="utf-8"?>
<!-- Generator: Adobe Illustrator 19.0.1, SVG Export Plug-In . SVG Version: 6.00 Build 0)  -->
<svg version="1.1" id="Слой_1" xmlns="http://www.w3.org/2000/svg" xmlns:xlink="http://www.w3.org/1999/xlink" x="0px" y="0px"
	 width="500px" height="500px" viewBox="-395 147 500 500" enable-background="new -395 147 500 500" xml:space="preserve">
<g id="logo">
	<g id="dish">
		<g id="Group">
			<path id="Oval" fill="#FB5D00" d="M-145,647c138.1,0,250-111.9,250-250c0-138.1-111.9-250-250-250c-138.1,0-250,111.9-250,250
				C-395,535.1-283.1,647-145,647z"/>
			<path id="Shape" fill="#E73B00" d="M105,397c0-4.1-0.1-8.1-0.3-12.2c-0.6-0.6-1.2-1.3-1.9-1.9c-1-1.2-138.9-139.1-140-140
				c-4.2-4.8-8.8-7.6-13.7-7.6l0,0c-9.7,0-18.5,11.3-24.8,27.3c-21-11.2-44.9-17.5-70.3-17.5c-19.4,0-37.8,3.7-54.8,10.4
				c-0.6-1.2-4.5-5.2-6-5.8c-0.8-2.1-2.8-3.5-5.2-3.5c-3.1,0-5.6,2.5-5.6,5.6v6c-0.6-0.8-7.1-7.5-8.5-8.1c-0.8-2.1-2.8-3.5-5.2-3.5
				c-3.1,0-5.6,2.5-5.6,5.6v6c-0.6-0.8-7.1-7.5-8.5-8.1c-0.8-2.1-2.8-3.5-5.2-3.5c-3.1,0-5.6,2.5-5.6,5.6v6
				c-0.6-0.8-7.1-7.5-8.5-8.1c-0.8-2.1-2.8-3.5-5.2-3.5c-3.1,0-5.6,2.5-5.6,5.6v67.7l0,0.3l0,0.2c-12.8,22.1-20.1,47.7-20.1,75
				c0,39.4,15.2,75.3,40.1,102c-1.3,9.6-2.1,16.9-2.1,18.9v24.7l-0.1,1c0,5.5,2.6,10.3,6.7,13.4c0.9,1.2,89,89.3,90.2,90.2l1.2,1.2
				c4.9,0.3,9.9,0.5,14.9,0.5C-6.9,647,105,535.1,105,397z"/>
			<path id="Oval_2" fill="#FFFFFF" d="M-145.9,545C-63.1,545,4,477.9,4,395.1s-67.1-149.9-149.9-149.9
				c-82.8,0-149.9,67.1-149.9,149.9S-228.7,545-145.9,545z"/>
			<path id="Oval_3" fill="#D6EAF0" d="M-145.9,515.2c66.4,0,120.2-53.8,120.2-120.2c0-66.4-53.8-120.2-120.2-120.2
				c-66.4,0-120.2,53.8-120.2,120.2C-266.1,461.4-212.3,515.2-145.9,515.2z"/>
			<path id="Oval_4" fill="#FFFFFF" d="M-145.9,490.2c52.5,0,95.1-42.6,95.1-95.1c0-52.5-42.6-95.1-95.1-95.1
				c-52.5,0-95.1,42.6-95.1,95.1C-241,447.6-198.5,490.2-145.9,490.2z"/>
			<path id="Shape_2" fill="#AADDEE" d="M-85.6,316c0,27.3,29.7,36.7,29.7,44c0,19.9,0,26.8,0,58.1c0,7.1-11.8,86.6-11.8,94.1v24.7
				l-0.1,1c0,9.3,7.6,16.9,16.9,16.9c9.3,0,16.9-7.6,16.9-16.9l-0.1-0.6V512c-0.1-7.5-11.8-86.8-11.8-93.9c0-33.2,0-37.6,0-58.1
				c0-7.3,29.7-16.7,29.7-44c0-36.7-15.5-80.7-34.7-80.7C-70,235.3-85.6,279.3-85.6,316z"/>
			<path id="Shape_3" fill="#38B5C7" d="M-50.8,554.8c9.3,0,16.9-7.6,16.9-16.9l-0.1-0.6V512c-0.1-7.5-11.8-86.8-11.8-93.9
				c0-33.2,0-37.6,0-58.1c0-7.3,29.7-16.7,29.7-44c0-36.7-15.5-80.7-34.7-80.7l0,0L-50.8,554.8L-50.8,554.8L-50.8,554.8z"/>
			<path id="Shape_4" fill="#AADDEE" d="M-245.1,251.9c0-3.1-2.5-5.6-5.6-5.6c-3.1,0-5.6,2.5-5.6,5.6v67.7h-8.1v-67.7
				c0-3.1-2.5-5.6-5.6-5.6c-3.1,0-5.6,2.5-5.6,5.6v67.7l0,0.3c0,27.3,29.7,36.7,29.7,44V422c0,7.1-11.8,86.6-11.8,94.1v24.7l-0.1,1
				c0,9.3,7.6,16.9,16.9,16.9c9.3,0,16.9-7.6,16.9-16.9l-0.1-0.6v-25.3c-0.1-7.5-11.8-86.8-11.8-93.9v-58.1c0-7.3,29.7-16.7,29.7-44
				l0-0.3h0v-67.7c0-3.1-2.5-5.6-5.6-5.6c-3.1,0-5.6,2.5-5.6,5.6v67.7h-8.1v-67.7c0-3.1-2.5-5.6-5.6-5.6c-3.1,0-5.6,2.5-5.6,5.6
				v67.7h-8.1L-245.1,251.9L-245.1,251.9L-245.1,251.9z"/>
			<path id="Shape_5" fill="#38B5C7" d="M-231.3,246.2c-3.1,0-5.6,2.5-5.6,5.6v67.7h-4.1v239.1c9.3,0,16.9-7.6,16.9-16.9l-0.1-25.9
				c-0.1-7.5-11.8-86.8-11.8-93.9v-58.1c0-7.3,29.7-16.7,29.7-44v-68c0-3.1-2.5-5.6-5.6-5.6c-3.1,0-5.6,2.5-5.6,5.6v67.7h-8.1v-67.7
				C-225.7,248.8-228.2,246.2-231.3,246.2z"/>
		</g>
	</g>
</g>
</svg>
